<svg xmlns="http://www.w3.org/2000/svg" version="1.1" xmlns:xlink="http://www.w3.org/1999/xlink" xmlns:svgjs="http://svgjs.dev/svgjs" viewBox="0 0 800 800"><defs><linearGradient x1="50%" y1="0%" x2="50%" y2="100%" id="nnneon-grad"><stop stop-color="#a3e635" stop-opacity="1" offset="0%"></stop><stop stop-color="#6a3fe7" stop-opacity="1" offset="100%"></stop></linearGradient><filter id="nnneon-filter" x="-100%" y="-100%" width="400%" height="400%" filterUnits="objectBoundingBox" primitiveUnits="userSpaceOnUse" color-interpolation-filters="sRGB">
	<feGaussianBlur stdDeviation="17 8" x="0%" y="0%" width="100%" height="100%" in="SourceGraphic" edgeMode="none" result="blur"></feGaussianBlur></filter><filter id="nnneon-filter2" x="-100%" y="-100%" width="400%" height="400%" filterUnits="objectBoundingBox" primitiveUnits="userSpaceOnUse" color-interpolation-filters="sRGB">
	<feGaussianBlur stdDeviation="10 17" x="0%" y="0%" width="100%" height="100%" in="SourceGraphic" edgeMode="none" result="blur"></feGaussianBlur></filter></defs><g stroke-width="27" stroke="url(#nnneon-grad)" fill="none"><path d="M379.4463590758462 103.56099708483964C392.1649520797125 96.2192365467319 407.8350479202875 96.2192365467319 420.5536409241538 103.56305244893207L646.4463761369739 233.98207020496523C659.1649691408403 241.32383074307296 667.0000170611278 254.89539984529176 667.0000170611278 269.5809762855997V530.4190117976659C667.0000170611278 545.104588237974 659.1649691408403 558.6761573401927 646.4463761369739 566.0199732423929L420.5536409241538 696.438990998426C407.8350479202875 703.7807515365337 392.1649520797125 703.7807515365337 379.4463590758462 696.4369356343336L153.55362386302613 566.0179178783005C140.83503085915976 558.6761573401927 132.99998293887228 545.104588237974 132.99998293887228 530.4190117976659V269.5809762855997C132.99998293887228 254.89539984529176 140.83503085915976 241.32383074307296 153.55362386302613 233.98001484087285L379.4463590758462 103.56099708483964Z " filter="url(#nnneon-filter)"></path><path d="M391.4463590758462 103.56099708483964C404.1649520797125 96.2192365467319 419.8350479202875 96.2192365467319 432.5536409241538 103.56305244893207L658.4463761369739 233.98207020496523C671.1649691408403 241.32383074307296 679.0000170611278 254.89539984529176 679.0000170611278 269.5809762855997V530.4190117976659C679.0000170611278 545.104588237974 671.1649691408403 558.6761573401927 658.4463761369739 566.0199732423929L432.5536409241538 696.438990998426C419.8350479202875 703.7807515365337 404.1649520797125 703.7807515365337 391.4463590758462 696.4369356343336L165.55362386302613 566.0179178783005C152.83503085915976 558.6761573401927 144.99998293887228 545.104588237974 144.99998293887228 530.4190117976659V269.5809762855997C144.99998293887228 254.89539984529176 152.83503085915976 241.32383074307296 165.55362386302613 233.98001484087285L391.4463590758462 103.56099708483964Z " filter="url(#nnneon-filter2)" opacity="0.25"></path><path d="M367.4463590758462 103.56099708483964C380.1649520797125 96.2192365467319 395.8350479202875 96.2192365467319 408.5536409241538 103.56305244893207L634.4463761369739 233.98207020496523C647.1649691408403 241.32383074307296 655.0000170611278 254.89539984529176 655.0000170611278 269.5809762855997V530.4190117976659C655.0000170611278 545.104588237974 647.1649691408403 558.6761573401927 634.4463761369739 566.0199732423929L408.5536409241538 696.438990998426C395.8350479202875 703.7807515365337 380.1649520797125 703.7807515365337 367.4463590758462 696.4369356343336L141.55362386302613 566.0179178783005C128.83503085915976 558.6761573401927 120.99998293887228 545.104588237974 120.99998293887228 530.4190117976659V269.5809762855997C120.99998293887228 254.89539984529176 128.83503085915976 241.32383074307296 141.55362386302613 233.98001484087285L367.4463590758462 103.56099708483964Z " filter="url(#nnneon-filter2)" opacity="0.25"></path><path d="M379.4463590758462 103.56099708483964C392.1649520797125 96.2192365467319 407.8350479202875 96.2192365467319 420.5536409241538 103.56305244893207L646.4463761369739 233.98207020496523C659.1649691408403 241.32383074307296 667.0000170611278 254.89539984529176 667.0000170611278 269.5809762855997V530.4190117976659C667.0000170611278 545.104588237974 659.1649691408403 558.6761573401927 646.4463761369739 566.0199732423929L420.5536409241538 696.438990998426C407.8350479202875 703.7807515365337 392.1649520797125 703.7807515365337 379.4463590758462 696.4369356343336L153.55362386302613 566.0179178783005C140.83503085915976 558.6761573401927 132.99998293887228 545.104588237974 132.99998293887228 530.4190117976659V269.5809762855997C132.99998293887228 254.89539984529176 140.83503085915976 241.32383074307296 153.55362386302613 233.98001484087285L379.4463590758462 103.56099708483964Z "></path></g></svg>